<svg xmlns="http://www.w3.org/2000/svg" width="1040" height="650" viewBox="0 0 1040 650">
<rect width="100%" height="100%" fill="white"/>
<text x="520.0" y="32" text-anchor="middle" font-family="Arial" font-size="22">CIFAR-100 accuracy after structured pruning</text>
<line x1="90" y1="570.0" x2="790" y2="570.0" stroke="#dddddd"/>
<text x="78" y="575.0" text-anchor="end" font-family="Arial" font-size="13">0</text>
<line x1="90" y1="519.5" x2="790" y2="519.5" stroke="#dddddd"/>
<text x="78" y="524.5" text-anchor="end" font-family="Arial" font-size="13">10</text>
<line x1="90" y1="469.0" x2="790" y2="469.0" stroke="#dddddd"/>
<text x="78" y="474.0" text-anchor="end" font-family="Arial" font-size="13">20</text>
<line x1="90" y1="418.5" x2="790" y2="418.5" stroke="#dddddd"/>
<text x="78" y="423.5" text-anchor="end" font-family="Arial" font-size="13">30</text>
<line x1="90" y1="368.0" x2="790" y2="368.0" stroke="#dddddd"/>
<text x="78" y="373.0" text-anchor="end" font-family="Arial" font-size="13">40</text>
<line x1="90" y1="317.5" x2="790" y2="317.5" stroke="#dddddd"/>
<text x="78" y="322.5" text-anchor="end" font-family="Arial" font-size="13">50</text>
<line x1="90" y1="267.0" x2="790" y2="267.0" stroke="#dddddd"/>
<text x="78" y="272.0" text-anchor="end" font-family="Arial" font-size="13">60</text>
<line x1="90" y1="216.5" x2="790" y2="216.5" stroke="#dddddd"/>
<text x="78" y="221.5" text-anchor="end" font-family="Arial" font-size="13">70</text>
<line x1="90" y1="166.0" x2="790" y2="166.0" stroke="#dddddd"/>
<text x="78" y="171.0" text-anchor="end" font-family="Arial" font-size="13">80</text>
<line x1="90" y1="115.5" x2="790" y2="115.5" stroke="#dddddd"/>
<text x="78" y="120.5" text-anchor="end" font-family="Arial" font-size="13">90</text>
<line x1="90" y1="65.0" x2="790" y2="65.0" stroke="#dddddd"/>
<text x="78" y="70.0" text-anchor="end" font-family="Arial" font-size="13">100</text>
<line x1="90.0" y1="65" x2="90.0" y2="570" stroke="#eeeeee"/>
<text x="90.0" y="595" text-anchor="middle" font-family="Arial" font-size="13">10</text>
<line x1="177.5" y1="65" x2="177.5" y2="570" stroke="#eeeeee"/>
<text x="177.5" y="595" text-anchor="middle" font-family="Arial" font-size="13">20</text>
<line x1="265.0" y1="65" x2="265.0" y2="570" stroke="#eeeeee"/>
<text x="265.0" y="595" text-anchor="middle" font-family="Arial" font-size="13">30</text>
<line x1="352.5" y1="65" x2="352.5" y2="570" stroke="#eeeeee"/>
<text x="352.5" y="595" text-anchor="middle" font-family="Arial" font-size="13">40</text>
<line x1="440.0" y1="65" x2="440.0" y2="570" stroke="#eeeeee"/>
<text x="440.0" y="595" text-anchor="middle" font-family="Arial" font-size="13">50</text>
<line x1="527.5" y1="65" x2="527.5" y2="570" stroke="#eeeeee"/>
<text x="527.5" y="595" text-anchor="middle" font-family="Arial" font-size="13">60</text>
<line x1="615.0" y1="65" x2="615.0" y2="570" stroke="#eeeeee"/>
<text x="615.0" y="595" text-anchor="middle" font-family="Arial" font-size="13">70</text>
<line x1="702.5" y1="65" x2="702.5" y2="570" stroke="#eeeeee"/>
<text x="702.5" y="595" text-anchor="middle" font-family="Arial" font-size="13">80</text>
<line x1="790.0" y1="65" x2="790.0" y2="570" stroke="#eeeeee"/>
<text x="790.0" y="595" text-anchor="middle" font-family="Arial" font-size="13">90</text>
<line x1="90" y1="570" x2="790" y2="570" stroke="black" stroke-width="1.5"/>
<line x1="90" y1="65" x2="90" y2="570" stroke="black" stroke-width="1.5"/>
<text x="440.0" y="628" text-anchor="middle" font-family="Arial" font-size="16">Requested pruning (%)</text>
<text x="24" y="317.5" text-anchor="middle" transform="rotate(-90 24 317.5)" font-family="Arial" font-size="16">Test accuracy (%)</text>
<polyline points="90.0,203.8 177.5,245.4 265.0,292.5 352.5,340.9 440.0,397.1 527.5,472.7 615.0,511.9 702.5,544.4 790.0,552.5" fill="none" stroke="#0072B2" stroke-width="2.5"/>
<circle cx="90.0" cy="203.8" r="3.5" fill="#0072B2"/>
<circle cx="177.5" cy="245.4" r="3.5" fill="#0072B2"/>
<circle cx="265.0" cy="292.5" r="3.5" fill="#0072B2"/>
<circle cx="352.5" cy="340.9" r="3.5" fill="#0072B2"/>
<circle cx="440.0" cy="397.1" r="3.5" fill="#0072B2"/>
<circle cx="527.5" cy="472.7" r="3.5" fill="#0072B2"/>
<circle cx="615.0" cy="511.9" r="3.5" fill="#0072B2"/>
<circle cx="702.5" cy="544.4" r="3.5" fill="#0072B2"/>
<circle cx="790.0" cy="552.5" r="3.5" fill="#0072B2"/>
<line x1="815" y1="83" x2="845" y2="83" stroke="#0072B2" stroke-width="3"/>
<text x="855" y="88" font-family="Arial" font-size="14">ResNet-18</text>
<polyline points="90.0,196.9 177.5,242.6 265.0,298.1 352.5,364.9 440.0,435.3 527.5,492.3 615.0,522.8 702.5,542.4 790.0,553.8" fill="none" stroke="#E69F00" stroke-width="2.5"/>
<circle cx="90.0" cy="196.9" r="3.5" fill="#E69F00"/>
<circle cx="177.5" cy="242.6" r="3.5" fill="#E69F00"/>
<circle cx="265.0" cy="298.1" r="3.5" fill="#E69F00"/>
<circle cx="352.5" cy="364.9" r="3.5" fill="#E69F00"/>
<circle cx="440.0" cy="435.3" r="3.5" fill="#E69F00"/>
<circle cx="527.5" cy="492.3" r="3.5" fill="#E69F00"/>
<circle cx="615.0" cy="522.8" r="3.5" fill="#E69F00"/>
<circle cx="702.5" cy="542.4" r="3.5" fill="#E69F00"/>
<circle cx="790.0" cy="553.8" r="3.5" fill="#E69F00"/>
<line x1="815" y1="111" x2="845" y2="111" stroke="#E69F00" stroke-width="3"/>
<text x="855" y="116" font-family="Arial" font-size="14">ResNet-34</text>
<polyline points="90.0,172.6 177.5,206.1 265.0,249.9 352.5,324.2 440.0,406.6 527.5,490.7 615.0,536.0 702.5,539.9 790.0,550.7" fill="none" stroke="#009E73" stroke-width="2.5"/>
<circle cx="90.0" cy="172.6" r="3.5" fill="#009E73"/>
<circle cx="177.5" cy="206.1" r="3.5" fill="#009E73"/>
<circle cx="265.0" cy="249.9" r="3.5" fill="#009E73"/>
<circle cx="352.5" cy="324.2" r="3.5" fill="#009E73"/>
<circle cx="440.0" cy="406.6" r="3.5" fill="#009E73"/>
<circle cx="527.5" cy="490.7" r="3.5" fill="#009E73"/>
<circle cx="615.0" cy="536.0" r="3.5" fill="#009E73"/>
<circle cx="702.5" cy="539.9" r="3.5" fill="#009E73"/>
<circle cx="790.0" cy="550.7" r="3.5" fill="#009E73"/>
<line x1="815" y1="139" x2="845" y2="139" stroke="#009E73" stroke-width="3"/>
<text x="855" y="144" font-family="Arial" font-size="14">ResNet-50</text>
<polyline points="90.0,174.7 177.5,227.2 265.0,313.9 352.5,535.4 440.0,554.3 527.5,561.7 615.0,561.2 702.5,560.6 790.0,558.8" fill="none" stroke="#D55E00" stroke-width="2.5"/>
<circle cx="90.0" cy="174.7" r="3.5" fill="#D55E00"/>
<circle cx="177.5" cy="227.2" r="3.5" fill="#D55E00"/>
<circle cx="265.0" cy="313.9" r="3.5" fill="#D55E00"/>
<circle cx="352.5" cy="535.4" r="3.5" fill="#D55E00"/>
<circle cx="440.0" cy="554.3" r="3.5" fill="#D55E00"/>
<circle cx="527.5" cy="561.7" r="3.5" fill="#D55E00"/>
<circle cx="615.0" cy="561.2" r="3.5" fill="#D55E00"/>
<circle cx="702.5" cy="560.6" r="3.5" fill="#D55E00"/>
<circle cx="790.0" cy="558.8" r="3.5" fill="#D55E00"/>
<line x1="815" y1="167" x2="845" y2="167" stroke="#D55E00" stroke-width="3"/>
<text x="855" y="172" font-family="Arial" font-size="14">ResNet-101</text>
<polyline points="90.0,262.9 177.5,269.5 265.0,276.0 352.5,283.2 440.0,299.9 527.5,337.9 615.0,394.0 702.5,464.3 790.0,491.9" fill="none" stroke="#CC79A7" stroke-width="2.5"/>
<circle cx="90.0" cy="262.9" r="3.5" fill="#CC79A7"/>
<circle cx="177.5" cy="269.5" r="3.5" fill="#CC79A7"/>
<circle cx="265.0" cy="276.0" r="3.5" fill="#CC79A7"/>
<circle cx="352.5" cy="283.2" r="3.5" fill="#CC79A7"/>
<circle cx="440.0" cy="299.9" r="3.5" fill="#CC79A7"/>
<circle cx="527.5" cy="337.9" r="3.5" fill="#CC79A7"/>
<circle cx="615.0" cy="394.0" r="3.5" fill="#CC79A7"/>
<circle cx="702.5" cy="464.3" r="3.5" fill="#CC79A7"/>
<circle cx="790.0" cy="491.9" r="3.5" fill="#CC79A7"/>
<line x1="815" y1="195" x2="845" y2="195" stroke="#CC79A7" stroke-width="3"/>
<text x="855" y="200" font-family="Arial" font-size="14">MobileNetV3-Small</text>
<polyline points="90.0,189.7 177.5,213.1 265.0,252.3 352.5,310.8 440.0,355.0 527.5,428.9 615.0,474.5 702.5,505.2 790.0,522.9" fill="none" stroke="#56B4E9" stroke-width="2.5"/>
<circle cx="90.0" cy="189.7" r="3.5" fill="#56B4E9"/>
<circle cx="177.5" cy="213.1" r="3.5" fill="#56B4E9"/>
<circle cx="265.0" cy="252.3" r="3.5" fill="#56B4E9"/>
<circle cx="352.5" cy="310.8" r="3.5" fill="#56B4E9"/>
<circle cx="440.0" cy="355.0" r="3.5" fill="#56B4E9"/>
<circle cx="527.5" cy="428.9" r="3.5" fill="#56B4E9"/>
<circle cx="615.0" cy="474.5" r="3.5" fill="#56B4E9"/>
<circle cx="702.5" cy="505.2" r="3.5" fill="#56B4E9"/>
<circle cx="790.0" cy="522.9" r="3.5" fill="#56B4E9"/>
<line x1="815" y1="223" x2="845" y2="223" stroke="#56B4E9" stroke-width="3"/>
<text x="855" y="228" font-family="Arial" font-size="14">MobileNetV3-Large</text>
<polyline points="90.0,188.2 177.5,202.3 265.0,226.4 352.5,258.8 440.0,307.3 527.5,378.3 615.0,407.9 702.5,455.9 790.0,498.3" fill="none" stroke="#6B6B6B" stroke-width="2.5"/>
<circle cx="90.0" cy="188.2" r="3.5" fill="#6B6B6B"/>
<circle cx="177.5" cy="202.3" r="3.5" fill="#6B6B6B"/>
<circle cx="265.0" cy="226.4" r="3.5" fill="#6B6B6B"/>
<circle cx="352.5" cy="258.8" r="3.5" fill="#6B6B6B"/>
<circle cx="440.0" cy="307.3" r="3.5" fill="#6B6B6B"/>
<circle cx="527.5" cy="378.3" r="3.5" fill="#6B6B6B"/>
<circle cx="615.0" cy="407.9" r="3.5" fill="#6B6B6B"/>
<circle cx="702.5" cy="455.9" r="3.5" fill="#6B6B6B"/>
<circle cx="790.0" cy="498.3" r="3.5" fill="#6B6B6B"/>
<line x1="815" y1="251" x2="845" y2="251" stroke="#6B6B6B" stroke-width="3"/>
<text x="855" y="256" font-family="Arial" font-size="14">EfficientNet-B0</text>
</svg>